<svg width="22" height="24" viewBox="0 0 22 24" fill="none" xmlns="http://www.w3.org/2000/svg">
<path d="M21.6411 16.1486C20.6917 14.5156 20.1875 12.1717 20.1875 9.375C20.1875 6.93832 19.2196 4.60145 17.4966 2.87846C15.7736 1.15547 13.4367 0.1875 11 0.1875C8.56336 0.1875 6.22648 1.15547 4.50349 2.87846C2.7805 4.60145 1.81253 6.93832 1.81253 9.375C1.81253 12.1728 1.3105 14.5156 0.361124 16.1486C0.167401 16.4817 0.0647117 16.8598 0.0633679 17.2451C0.062024 17.6305 0.162072 18.0093 0.353468 18.3438C0.543653 18.6783 0.819694 18.9561 1.1531 19.1484C1.4865 19.3407 1.86517 19.4405 2.25003 19.4375H6.20722C6.31575 20.6337 6.86764 21.746 7.75447 22.556C8.64129 23.366 9.79896 23.8151 11 23.8151C12.2011 23.8151 13.3588 23.366 14.2456 22.556C15.1324 21.746 15.6843 20.6337 15.7928 19.4375H19.75C20.1343 19.4399 20.5123 19.3398 20.8451 19.1476C21.1779 18.9553 21.4534 18.6779 21.6433 18.3438C21.8355 18.0098 21.9365 17.6312 21.9361 17.2459C21.9358 16.8606 21.834 16.4821 21.6411 16.1486ZM11 21.1875C10.4957 21.1876 10.0069 21.0135 9.61626 20.6946C9.22561 20.3757 8.95714 19.9316 8.85628 19.4375H13.1438C13.0429 19.9316 12.7745 20.3757 12.3838 20.6946C11.9932 21.0135 11.5043 21.1876 11 21.1875ZM2.97847 16.8125C3.94644 14.8438 4.43753 12.3434 4.43753 9.375C4.43753 7.63452 5.12893 5.96532 6.35964 4.73461C7.59035 3.5039 9.25955 2.8125 11 2.8125C12.7405 2.8125 14.4097 3.5039 15.6404 4.73461C16.8711 5.96532 17.5625 7.63452 17.5625 9.375C17.5625 12.3423 18.0525 14.8438 19.0205 16.8125H2.97847Z" fill="black"/>
</svg>
