<svg width="16" height="17" viewBox="0 0 16 17" fill="none" xmlns="http://www.w3.org/2000/svg">
<g id="ph:note-pencil">
<path id="Vector" d="M14.3538 3.87414L12.3538 1.74914C12.3073 1.69975 12.2522 1.66056 12.1915 1.63383C12.1308 1.60709 12.0657 1.59333 12 1.59333C11.9343 1.59333 11.8692 1.60709 11.8085 1.63383C11.7478 1.66056 11.6927 1.69975 11.6462 1.74914L5.64625 8.12414C5.59983 8.17351 5.56303 8.23212 5.53793 8.29661C5.51284 8.3611 5.49995 8.43021 5.5 8.5V10.625C5.5 10.7659 5.55268 10.901 5.64645 11.0006C5.74021 11.1003 5.86739 11.1562 6 11.1562H8C8.06568 11.1563 8.13073 11.1426 8.19143 11.1159C8.25212 11.0893 8.30728 11.0502 8.35375 11.0009L14.3538 4.62586C14.4002 4.57652 14.4371 4.51793 14.4623 4.45344C14.4874 4.38894 14.5004 4.31981 14.5004 4.25C14.5004 4.18018 14.4874 4.11105 14.4623 4.04656C14.4371 3.98207 14.4002 3.92348 14.3538 3.87414ZM7.79313 10.0937H6.5V8.7198L10.5 4.4698L11.7931 5.84375L7.79313 10.0937ZM12.5 5.09269L11.2069 3.71875L12 2.87605L13.2931 4.25L12.5 5.09269ZM14 7.96875V13.8125C14 14.0943 13.8946 14.3645 13.7071 14.5638C13.5196 14.7631 13.2652 14.875 13 14.875H3C2.73478 14.875 2.48043 14.7631 2.29289 14.5638C2.10536 14.3645 2 14.0943 2 13.8125V3.1875C2 2.90571 2.10536 2.63545 2.29289 2.4362C2.48043 2.23694 2.73478 2.125 3 2.125H8.5C8.63261 2.125 8.75979 2.18097 8.85355 2.2806C8.94732 2.38023 9 2.51535 9 2.65625C9 2.79714 8.94732 2.93227 8.85355 3.0319C8.75979 3.13153 8.63261 3.1875 8.5 3.1875H3V13.8125H13V7.96875C13 7.82785 13.0527 7.69273 13.1464 7.5931C13.2402 7.49347 13.3674 7.4375 13.5 7.4375C13.6326 7.4375 13.7598 7.49347 13.8536 7.5931C13.9473 7.69273 14 7.82785 14 7.96875Z" fill="black"/>
</g>
</svg>
